<?xml version="1.0" standalone="no"?>
<!DOCTYPE svg PUBLIC "-//W3C//DTD SVG 20010904//EN"
 "http://www.w3.org/TR/2001/REC-SVG-20010904/DTD/svg10.dtd">
<svg version="1.0" xmlns="http://www.w3.org/2000/svg"
 width="255.000000pt" height="197.000000pt" viewBox="0 0 255.000000 197.000000"
 preserveAspectRatio="xMidYMid meet">
<metadata>
Created by potrace 1.10, written by Peter Selinger 2001-2011
</metadata>
<g transform="translate(0.000000,197.000000) scale(0.100000,-0.100000)"
fill="#000000" stroke="none">
<path d="M1930 1954 c6 -6 35 -24 65 -39 62 -30 111 -83 125 -136 6 -23 9
-206 8 -465 -3 -421 -3 -429 -23 -429 -17 0 -21 9 -26 63 -11 113 -44 118
-154 22 -74 -65 -101 -80 -141 -80 -36 0 -27 11 129 156 76 70 145 140 153
155 11 22 14 82 14 287 0 251 -1 260 -23 302 -16 30 -37 51 -67 67 l-43 23
-859 0 c-703 0 -865 -2 -891 -14 -43 -17 -84 -67 -97 -117 -7 -26 -10 -187 -8
-470 l3 -431 24 -19 c23 -19 25 -19 52 -2 15 10 134 106 264 213 129 107 244
199 256 204 29 14 46 -8 199 -249 130 -205 182 -275 205 -275 27 0 57 56 111
208 31 90 65 173 74 185 l18 21 33 -27 c79 -62 261 -245 255 -256 -16 -25 -50
-7 -124 62 -107 100 -107 100 -131 87 -28 -14 -39 -39 -106 -230 -60 -173 -69
-190 -91 -190 -8 0 -97 125 -198 278 -101 152 -193 285 -204 296 -14 12 -29
16 -45 12 -36 -9 -559 -449 -580 -488 -15 -29 -17 -59 -16 -223 1 -211 9 -253
58 -297 16 -15 47 -32 68 -37 24 -7 202 -11 486 -11 434 0 487 -3 487 -30 0
-6 -184 -10 -496 -10 -546 0 -531 -2 -594 63 -63 64 -61 34 -58 884 l3 771 30
44 c21 30 51 54 97 78 88 47 93 53 32 48 -71 -7 -134 -52 -168 -120 l-26 -52
0 -790 c0 -747 1 -793 19 -832 22 -49 92 -111 141 -124 48 -14 1178 -18 1154
-5 -9 6 -50 36 -91 68 l-73 57 -476 0 c-526 -1 -506 -3 -538 63 -13 29 -16 70
-16 239 l0 203 38 30 c20 16 149 123 285 238 137 115 250 207 252 205 1 -1 91
-137 198 -300 261 -396 251 -394 358 -83 38 110 72 206 75 214 3 10 37 -17
107 -87 82 -81 105 -99 118 -92 32 18 204 60 247 60 39 0 49 6 137 86 l95 86
0 -85 0 -85 48 -11 c26 -5 55 -13 65 -16 16 -7 17 20 17 463 0 394 -2 476 -15
513 -32 89 -96 144 -185 158 -39 6 -48 5 -40 -5z m76 -156 l34 -38 0 -272 0
-273 -157 -145 c-86 -80 -174 -160 -195 -178 l-38 -34 -162 156 c-140 135
-166 156 -194 156 -17 0 -36 -6 -42 -13 -6 -7 -41 -98 -78 -202 -37 -105 -70
-193 -74 -198 -3 -4 -84 114 -179 263 -185 289 -195 300 -247 265 -21 -14
-372 -301 -511 -418 l-34 -29 3 460 c3 450 3 461 24 489 11 15 32 34 45 40 19
10 216 12 897 10 l874 -2 34 -37z"/>
<path d="M1290 1661 c-93 -29 -142 -85 -148 -171 -6 -76 10 -121 58 -164 73
-65 171 -72 248 -16 114 82 105 260 -16 328 -44 23 -107 34 -142 23z m120 -59
c22 -11 44 -35 58 -63 75 -143 -85 -284 -224 -198 -62 38 -84 141 -44 207 42
68 136 93 210 54z"/>
<path d="M1304 1588 c-47 -12 -94 -70 -94 -116 0 -117 134 -172 209 -87 38 44
46 74 32 118 -22 65 -86 102 -147 85z m66 -43 c58 -30 67 -90 21 -136 -37 -37
-78 -38 -115 -4 -48 44 -33 120 29 146 28 11 33 11 65 -6z"/>
<path d="M1795 676 c-87 -20 -173 -57 -257 -111 -86 -56 -228 -191 -228 -217
0 -48 178 -197 313 -263 117 -56 203 -76 331 -76 149 0 266 40 401 136 82 58
185 169 185 199 0 46 -179 195 -315 263 -139 71 -307 97 -430 69z m275 -92
c101 -29 223 -102 321 -193 l54 -49 -40 -42 c-137 -143 -290 -214 -460 -213
-110 0 -194 21 -295 74 -77 40 -230 162 -230 183 0 7 17 28 38 48 197 187 401
251 612 192z m-675 -238 c0 -42 -1 -44 -17 -29 -22 20 -22 31 -1 55 9 10 17
18 17 18 1 0 1 -20 1 -44z m1095 -17 c-17 -32 -25 -28 -25 11 0 36 1 37 17 23
13 -11 15 -20 8 -34z"/>
<path d="M1879 510 c-73 -22 -119 -86 -119 -166 0 -88 55 -154 143 -170 79
-14 178 53 193 131 24 130 -94 243 -217 205z m125 -61 c73 -57 73 -151 0 -208
-55 -43 -171 -16 -194 45 -25 63 -2 141 48 168 41 23 114 20 146 -5z"/>
</g>
</svg>
