<?xml version="1.0" standalone="no"?>
<!DOCTYPE svg PUBLIC "-//W3C//DTD SVG 20010904//EN"
 "http://www.w3.org/TR/2001/REC-SVG-20010904/DTD/svg10.dtd">
<svg version="1.0" xmlns="http://www.w3.org/2000/svg"
 width="293.000000pt" height="172.000000pt" viewBox="0 0 293.000000 172.000000"
 preserveAspectRatio="xMidYMid meet">
<metadata>
Created by potrace 1.10, written by Peter Selinger 2001-2011
</metadata>
<g transform="translate(0.000000,172.000000) scale(0.100000,-0.100000)"
fill="#000000" stroke="none">
<path d="M1452 1710 c-60 -25 -1094 -615 -1102 -629 -5 -11 -4 -25 3 -40 13
-24 1109 -681 1136 -681 20 1 1092 653 1105 672 26 43 7 57 -366 268 -636 360
-742 420 -748 419 -3 0 -15 -4 -28 -9z m229 -146 c112 -64 245 -140 294 -169
50 -29 110 -64 135 -78 303 -168 436 -247 438 -259 2 -10 -16 -26 -45 -43 -40
-24 -649 -393 -917 -557 -44 -26 -88 -48 -99 -48 -10 0 -207 112 -436 249
-229 136 -469 279 -533 317 -65 38 -118 75 -118 82 0 14 28 32 215 136 295
165 695 392 770 437 44 26 83 48 86 49 3 0 98 -52 210 -116z"/>
<path d="M1378 1601 c-271 -143 -875 -492 -892 -515 -20 -26 -20 -26 0 -53 18
-24 555 -353 897 -550 l99 -56 36 17 c57 28 894 537 920 560 13 12 28 29 33
38 21 39 -20 66 -713 456 -304 172 -269 162 -380 103z m591 -270 c265 -151
479 -277 474 -281 -4 -4 -221 -136 -482 -294 l-474 -287 -281 167 c-154 92
-377 224 -493 293 -117 69 -212 128 -212 131 0 8 963 548 975 546 6 0 227
-124 493 -275z"/>
<path d="M126 931 c-131 -36 -132 -38 -100 -166 26 -105 47 -137 84 -128 31 8
43 39 31 75 -14 40 -9 45 26 21 42 -30 985 -590 1016 -604 38 -17 33 -27 -15
-31 -36 -3 -44 -7 -52 -30 -7 -20 -6 -31 5 -44 12 -15 28 -16 127 -11 69 3
119 10 128 18 13 11 15 30 9 118 -8 117 -21 151 -60 151 -33 0 -55 -34 -48
-76 3 -19 3 -34 0 -34 -3 0 -240 140 -527 311 -287 171 -533 315 -546 321 -29
14 -24 24 17 32 61 12 77 48 39 86 -24 24 -11 25 -134 -9z m61 -57 c-33 -30
-33 -41 -4 -72 12 -13 220 -142 462 -287 573 -342 596 -355 617 -355 23 0 58
39 58 64 1 46 18 -11 24 -82 7 -69 6 -72 -16 -81 -35 -13 -158 -24 -158 -14 0
5 14 19 30 31 17 13 30 28 30 35 0 23 -52 63 -180 140 -789 470 -886 527 -904
527 -13 0 -46 -46 -46 -62 0 -37 -20 -6 -41 63 -12 40 -18 74 -13 79 11 10
157 49 164 43 2 -2 -8 -15 -23 -29z"/>
<path d="M2662 888 c-32 -32 4 -88 55 -88 35 0 28 -14 -19 -40 -116 -63 -917
-526 -941 -543 -35 -24 -41 -18 -29 26 12 43 -7 77 -43 77 -33 0 -49 -28 -76
-138 -18 -69 -21 -97 -13 -110 13 -20 203 -73 234 -65 24 6 37 49 23 72 -6 9
-27 20 -47 25 l-37 8 88 50 c48 28 278 160 511 294 233 134 424 244 426 244 2
0 -1 -18 -6 -40 -11 -44 -3 -64 32 -73 33 -9 57 24 80 108 24 90 28 131 13
146 -13 13 -180 59 -213 59 -14 0 -31 -5 -38 -12z m153 -53 c74 -22 78 -29 54
-106 -21 -68 -39 -97 -39 -63 0 28 -28 64 -49 64 -10 0 -180 -93 -377 -206
-198 -114 -411 -236 -474 -272 -108 -61 -180 -115 -180 -135 0 -4 14 -21 32
-37 17 -16 29 -32 26 -35 -8 -8 -150 35 -167 50 -11 11 -10 25 9 89 24 78 40
98 40 48 0 -38 31 -66 62 -56 24 7 923 522 971 556 15 11 32 29 38 41 10 18 7
25 -20 49 l-31 28 26 0 c14 0 50 -7 79 -15z"/>
</g>
</svg>
