<?xml version="1.0" standalone="no"?>
<!DOCTYPE svg PUBLIC "-//W3C//DTD SVG 20010904//EN"
 "http://www.w3.org/TR/2001/REC-SVG-20010904/DTD/svg10.dtd">
<svg version="1.0" xmlns="http://www.w3.org/2000/svg"
 width="148.000000pt" height="148.000000pt" viewBox="0 0 148.000000 148.000000"
 preserveAspectRatio="xMidYMid meet">
<metadata>
Created by potrace 1.10, written by Peter Selinger 2001-2011
</metadata>
<g transform="translate(0.000000,148.000000) scale(0.100000,-0.100000)"
fill="#000000" stroke="none">
<path d="M195 1161 c-62 -37 -70 -61 -73 -223 l-4 -148 -24 0 c-32 0 -81 -48
-89 -87 -4 -21 -3 -33 4 -33 14 0 15 -127 1 -132 -16 -5 6 -66 32 -88 19 -16
39 -19 111 -20 l87 0 0 -64 c0 -67 9 -81 42 -64 14 7 18 22 18 68 l0 60 440 0
440 0 0 -60 c0 -46 4 -61 18 -68 33 -17 42 -3 42 64 l0 64 88 0 c80 0 90 2
115 25 15 14 27 31 27 38 0 7 3 23 7 36 4 17 3 22 -5 17 -9 -5 -12 11 -12 58
0 35 4 66 10 68 17 6 -9 76 -37 98 -14 11 -36 20 -48 20 -23 0 -23 2 -27 148
-3 135 -5 150 -26 180 -46 64 -29 62 -594 62 -482 0 -515 -1 -543 -19z m1072
-65 c28 -24 28 -25 31 -165 l4 -141 -26 0 c-24 0 -26 3 -26 48 0 35 -6 54 -20
70 -20 21 -28 22 -224 22 -194 0 -204 -1 -222 -21 -14 -15 -19 -34 -17 -70 1
-47 0 -49 -27 -49 -27 0 -28 1 -27 51 2 42 -2 54 -22 70 -21 17 -41 19 -222
19 -191 0 -199 -1 -219 -22 -14 -16 -20 -35 -20 -70 0 -45 -2 -48 -26 -48
l-26 0 4 141 c3 140 3 141 31 165 l28 24 499 0 499 0 28 -24z m-617 -266 l0
-40 -180 0 -180 0 0 40 0 40 180 0 180 0 0 -40z m540 0 l0 -40 -180 0 -180 0
0 40 0 40 180 0 180 0 0 -40z m212 -117 c15 -13 18 -31 18 -100 0 -138 82
-123 -680 -123 -762 0 -680 -15 -680 121 0 132 -73 119 678 119 587 0 647 -2
664 -17z"/>
</g>
</svg>
