<?xml version="1.0" standalone="no"?>
<!DOCTYPE svg PUBLIC "-//W3C//DTD SVG 20010904//EN"
 "http://www.w3.org/TR/2001/REC-SVG-20010904/DTD/svg10.dtd">
<svg version="1.0" xmlns="http://www.w3.org/2000/svg"
 width="225.000000pt" height="225.000000pt" viewBox="0 0 225.000000 225.000000"
 preserveAspectRatio="xMidYMid meet">
<metadata>
Created by potrace 1.10, written by Peter Selinger 2001-2011
</metadata>
<g transform="translate(0.000000,225.000000) scale(0.100000,-0.100000)"
fill="#000000" stroke="none">
<path d="M1083 2075 c-23 -7 -247 -120 -498 -250 -366 -192 -459 -244 -471
-266 -19 -38 -18 -102 3 -128 11 -12 219 -110 493 -232 449 -200 477 -211 525
-207 38 3 164 55 518 213 503 223 497 220 497 294 0 52 -20 80 -84 115 -169
93 -894 465 -916 469 -14 3 -44 -1 -67 -8z m544 -277 c502 -262 501 -261 474
-327 -11 -25 -60 -49 -469 -231 -264 -118 -474 -205 -497 -208 -37 -4 -92 18
-506 202 -255 113 -470 214 -476 223 -17 22 -16 63 1 86 8 10 187 108 397 219
494 258 535 278 578 278 26 0 150 -60 498 -242z"/>
<path d="M675 1786 c-263 -140 -447 -244 -458 -259 -16 -21 -17 -27 -5 -46 17
-28 21 -29 490 -225 219 -91 409 -166 424 -166 14 0 56 13 92 29 37 15 233 97
435 181 383 159 411 175 388 218 -6 11 -21 26 -34 35 -41 27 -856 459 -875
463 -9 3 -207 -97 -457 -230z m902 -46 c244 -129 443 -237 443 -240 0 -3 -143
-64 -317 -137 -175 -72 -376 -155 -448 -185 l-130 -54 -447 185 c-246 102
-448 188 -448 191 0 3 174 97 387 210 212 113 411 219 442 236 31 18 61 31 66
30 6 0 209 -107 452 -236z"/>
<path d="M93 1111 c12 -102 -13 -86 510 -320 513 -228 512 -228 604 -193 27
10 243 106 482 212 412 184 434 195 448 227 7 18 16 53 20 78 l6 45 -54 -29
c-53 -29 -975 -451 -984 -451 -9 0 -951 432 -994 456 l-44 24 6 -49z m1991
-71 c-16 -16 -78 -45 -359 -170 -22 -9 -154 -68 -293 -130 -143 -63 -272 -115
-296 -117 -43 -5 -67 3 -246 84 -213 97 -682 303 -688 303 -12 0 -52 39 -52
50 0 6 4 10 9 10 5 0 222 -97 481 -215 259 -118 479 -215 488 -214 9 0 231 98
492 218 261 120 477 214 479 208 2 -5 -5 -17 -15 -27z"/>
<path d="M93 702 c3 -26 11 -61 19 -77 15 -33 8 -29 583 -285 297 -132 399
-173 430 -173 31 0 150 48 519 213 456 204 479 215 493 247 7 18 16 53 20 78
l6 45 -54 -29 c-56 -31 -975 -451 -984 -451 -10 0 -928 420 -984 451 l-54 29
6 -48z m1991 -72 c-11 -10 -222 -109 -471 -219 -335 -149 -461 -201 -490 -201
-24 0 -82 20 -158 54 -769 340 -833 371 -810 394 2 3 35 -9 72 -25 60 -27 676
-309 825 -377 31 -14 64 -26 73 -26 9 0 51 16 93 36 439 204 878 399 881 391
2 -5 -5 -17 -15 -27z"/>
</g>
</svg>
