<?xml version="1.0" standalone="no"?>
<!DOCTYPE svg PUBLIC "-//W3C//DTD SVG 20010904//EN"
 "http://www.w3.org/TR/2001/REC-SVG-20010904/DTD/svg10.dtd">
<svg version="1.0" xmlns="http://www.w3.org/2000/svg"
 width="264.000000pt" height="191.000000pt" viewBox="0 0 264.000000 191.000000"
 preserveAspectRatio="xMidYMid meet">
<metadata>
Created by potrace 1.10, written by Peter Selinger 2001-2011
</metadata>
<g transform="translate(0.000000,191.000000) scale(0.100000,-0.100000)"
fill="#000000" stroke="none">
<path d="M120 1898 c-69 -19 -113 -82 -113 -163 0 -145 129 -216 563 -310 l75
-16 38 -182 c21 -100 55 -249 75 -330 l36 -148 110 -79 c275 -194 711 -464
937 -579 152 -77 168 -83 222 -83 101 2 114 16 309 327 112 179 233 386 246
420 12 31 16 70 14 119 -3 47 -79 111 -319 270 -345 227 -771 497 -853 539
-71 37 -78 39 -140 33 -85 -9 -407 -88 -511 -126 l-81 -30 -97 99 c-104 107
-204 178 -303 215 -75 28 -160 38 -208 24z m155 -43 c77 -20 169 -64 220 -104
55 -44 174 -182 175 -202 0 -9 -9 -24 -20 -34 -11 -10 -20 -26 -20 -37 0 -28
-50 -23 -189 17 -173 50 -331 111 -362 141 -32 30 -54 100 -45 142 7 29 47 74
76 85 29 11 107 7 165 -8z m1150 -199 c86 -42 416 -250 845 -532 238 -156 301
-204 324 -248 19 -35 19 -36 -4 -88 -27 -64 -242 -423 -354 -591 -68 -103 -89
-126 -129 -148 l-48 -26 -202 105 c-201 104 -434 244 -722 435 -245 161 -303
206 -314 241 -21 64 -123 528 -117 533 1 2 20 -6 41 -17 47 -24 64 -25 110 -6
43 18 75 69 75 119 0 30 -8 46 -40 81 -23 24 -37 47 -33 49 30 19 439 115 493
116 14 1 48 -10 75 -23z m-566 -163 c43 -40 45 -90 6 -128 -54 -55 -145 -15
-145 63 0 82 80 120 139 65z"/>
</g>
</svg>
